<svg width="80" height="18" viewBox="0 0 80 18" fill="none" xmlns="http://www.w3.org/2000/svg">
<path d="M3.62711 9.67607C1.44402 9.22126 0 7.45887 0 4.96879C0 1.68279 2.11486 0 4.57084 0H9.99444V2.5583H9.88074C9.88074 2.37638 9.65333 2.04664 9.08482 2.04664H5.67375V7.69765C6.48103 7.50436 7.11777 6.94721 7.11777 6.04896C7.11777 5.92389 7.1064 5.79882 7.07229 5.66238L7.17462 5.6169L8.19794 7.78861C7.81135 8.84604 6.82214 9.49415 5.67375 9.71018V13.5192C6.81077 13.8603 9.99444 14.9519 12.314 14.9519C13.2577 14.9519 14.0422 14.7131 14.4971 14.0536L14.5994 14.0991L13.4169 16.7142C12.8484 16.8962 12.2685 16.9189 11.6772 16.9189C8.69823 16.9189 4.41165 15.0656 3.11544 15.0656V14.9519C3.29737 14.9519 3.62711 14.7245 3.62711 14.1559V9.67607ZM2.04664 4.95742C2.04664 6.16267 2.68338 7.06092 3.62711 7.49299V2.23994C2.79708 2.53556 2.04664 3.24052 2.04664 4.95742Z" fill="white" fill-opacity="0.5"/>
<path d="M11.5304 4.60495V11.0291H13.6225C14.191 11.0291 14.4184 10.6994 14.4184 10.5175H14.5321V12.7915H9.0858V12.6778C9.26772 12.6778 9.59746 12.4504 9.59746 11.8819V4.60495C9.59746 4.03643 9.26772 3.80903 9.0858 3.80903V3.69533H12.0421V3.80903C11.8601 3.80903 11.5304 4.03643 11.5304 4.60495Z" fill="white" fill-opacity="0.5"/>
<path d="M20.0648 4.60495C20.0762 4.50261 20.0876 4.40028 20.0876 4.32069C20.0876 3.89999 19.8943 3.80903 19.7578 3.80903V3.69533H22.7141V3.80903C22.5322 3.80903 22.2024 4.19562 22.1001 4.60495C21.9295 5.27579 21.6453 6.36733 21.3497 7.57258C20.8607 9.50552 20.315 11.7113 20.0648 12.7915H17.3701V12.6778C17.6771 12.6778 17.8021 12.2116 17.8021 11.9729C17.8021 11.1769 17.0631 8.61864 16.8016 7.57258C16.5059 6.3787 16.2103 5.24168 16.0511 4.60495C15.9488 4.19562 15.6191 3.80903 15.4371 3.80903V3.69533H18.3934V3.80903C18.257 3.80903 18.0637 3.89999 18.0637 4.32069C18.0637 4.40028 18.075 4.50261 18.0864 4.60495C18.2456 5.59416 18.4503 6.58337 18.6549 7.57258C18.8027 8.23205 18.9505 8.88015 19.087 9.53963C19.2234 8.88015 19.3599 8.23205 19.4963 7.57258C19.701 6.58337 19.9056 5.59416 20.0648 4.60495Z" fill="white" fill-opacity="0.5"/>
<path d="M24.1323 11.8819V4.60495C24.1323 4.03643 23.8025 3.80903 23.6206 3.80903V3.69533H26.5769V3.80903C26.3949 3.80903 26.0652 4.03643 26.0652 4.60495V11.8819C26.0652 12.4504 26.3949 12.6778 26.5769 12.6778V12.7915H23.6206V12.6778C23.8025 12.6778 24.1323 12.4504 24.1323 11.8819Z" fill="white" fill-opacity="0.5"/>
<path d="M29.9862 10.995C30.5547 10.995 31.0208 10.7676 31.0208 10.2446C31.0208 9.26674 27.5188 8.83467 27.5188 6.33322C27.5188 4.67317 28.8946 3.58162 30.4637 3.58162C31.2824 3.58162 32.0555 3.88862 32.7832 4.3548L32.5899 6.7994L32.4762 6.78803C32.4762 5.87841 31.2255 5.49182 30.4978 5.49182C29.9293 5.49182 29.4859 5.71923 29.4859 6.24226C29.4859 7.1064 32.9765 7.57258 32.9765 10.1309C32.9765 11.7909 31.6462 12.9052 30.043 12.9052C29.2243 12.9052 28.4512 12.5982 27.7235 12.132L27.9168 9.68744L28.0305 9.69881C28.0305 10.5971 29.2585 10.995 29.9862 10.995Z" fill="white" fill-opacity="0.5"/>
<path d="M36.3362 9.20989V11.8819C36.3362 12.4504 36.6659 12.6778 36.8478 12.6778V12.7915H33.8916V12.6778C34.0735 12.6778 34.4032 12.4504 34.4032 11.8819V4.60495C34.4032 4.03643 34.0735 3.80903 33.8916 3.80903V3.69533H36.8478V3.80903C36.6659 3.80903 36.3362 4.03643 36.3362 4.60495V7.67491L38.0417 7.36791V4.60495C38.0417 4.03643 37.712 3.80903 37.53 3.80903V3.69533H40.4863V3.80903C40.3044 3.80903 39.9746 4.03643 39.9746 4.60495V11.8819C39.9746 12.4504 40.3044 12.6778 40.4863 12.6778V12.7915H37.53V12.6778C37.712 12.6778 38.0417 12.4504 38.0417 11.8819V8.90289L36.3362 9.20989Z" fill="white" fill-opacity="0.5"/>
<path d="M44.6955 1.53498V1.42128H47.8223C48.1862 2.49008 49.1754 4.00232 50.0964 5.59416C51.0287 4.00232 52.0179 2.47871 52.3818 1.42128H55.5086V1.53498C55.3267 1.53498 54.9969 1.76239 54.9969 2.3309V14.1559C54.9969 14.7245 55.3267 14.9519 55.5086 14.9519V15.0656H52.4386V14.9519C52.6206 14.9519 52.9503 14.7245 52.9503 14.1559V4.55946C52.6206 5.28716 50.1532 8.74371 50.1532 10.5288C50.1532 11.1769 50.4716 11.5976 51.3357 11.5976C51.5745 11.5976 51.8474 11.5749 52.1658 11.5067L52.2226 11.6659L49.7212 12.7915C48.5614 12.3594 48.118 11.5749 48.118 10.6084C48.118 9.72155 48.4932 8.67549 49.0162 7.58395C48.2999 6.23089 47.4471 4.96879 47.2538 4.55946V14.4288C47.2538 15.5545 48.4932 16.339 49.6757 16.032L49.7212 16.1344L46.9582 17.3396C45.7757 16.9189 45.2072 15.6568 45.2072 14.4288V2.3309C45.2072 1.76239 44.8774 1.53498 44.6955 1.53498Z" fill="white" fill-opacity="0.5"/>
<path d="M56.2492 12.7915V12.6778C56.4311 12.6778 56.7608 12.3026 56.8632 11.8819C57.1019 10.8927 58.2958 5.11661 58.2958 4.60495C58.3072 4.01369 57.9661 3.80903 57.7955 3.80903V3.69533H61.2293C61.6273 5.44634 62.5028 10.1423 62.9121 11.8819C63.0031 12.2912 63.3442 12.6778 63.5261 12.6778V12.7915H60.5471V12.6778C60.7063 12.6778 60.9565 12.5414 60.8541 11.8819C60.7518 11.2338 60.6495 10.5857 60.5471 9.94896L59.1941 10.1877C59.1145 10.7562 59.0121 11.3134 58.9212 11.8819C58.8188 12.5414 59.069 12.6778 59.2282 12.6778V12.7915H56.2492ZM59.899 5.63964C59.7512 6.62885 59.6034 7.61806 59.4442 8.60727L60.3083 8.44808C60.1719 7.51573 60.0355 6.58337 59.899 5.63964Z" fill="white" fill-opacity="0.5"/>
<path d="M69.9581 10.9495C69.9581 11.6886 69.0258 12.9052 67.5249 12.9052C64.7392 12.9052 64.2048 10.2901 64.2048 8.26616C64.2048 6.24226 64.7392 3.58162 67.5249 3.58162C68.389 3.58162 69.4351 3.89999 69.7876 4.86646L68.4231 6.11719C68.3094 5.76471 68.0252 5.51456 67.5476 5.51456C66.2742 5.51456 66.3197 7.41339 66.3197 8.27753C66.3197 9.14167 66.2742 10.995 67.5476 10.995C67.9342 10.995 68.0252 10.7335 68.0252 10.5402V8.93701C68.0252 8.36849 67.6955 8.14109 67.5135 8.14109V8.02739H70.2424V8.14109C70.0605 8.14109 69.9581 8.36849 69.9581 8.93701V10.9495Z" fill="white" fill-opacity="0.5"/>
<path d="M71.6674 11.8819V4.60495C71.6674 4.03643 71.3377 3.80903 71.1557 3.80903V3.69533H74.112V3.80903C73.9301 3.80903 73.6003 4.03643 73.6003 4.60495V11.8819C73.6003 12.4504 73.9301 12.6778 74.112 12.6778V12.7915H71.1557V12.6778C71.3377 12.6778 71.6674 12.4504 71.6674 11.8819Z" fill="white" fill-opacity="0.5"/>
<path d="M78.3399 12.9052C75.6111 12.9052 75.0198 10.381 75.0198 8.19794C75.0198 6.03759 75.6793 3.58162 78.3399 3.58162C78.8743 3.58162 79.3633 3.71807 80 4.00232L79.7726 6.31048L79.6589 6.29911C79.6589 5.8443 79.079 5.51456 78.556 5.51456C77.2143 5.51456 77.1347 7.09503 77.1347 8.09561C77.1347 9.14167 77.1006 10.9723 78.556 10.9723C79.079 10.9723 79.6589 10.6425 79.6589 10.1877L79.7726 10.1764L80 12.4845C79.3633 12.7688 78.8743 12.9052 78.3399 12.9052Z" fill="white" fill-opacity="0.5"/>
</svg>
