<svg width="185" height="42" viewBox="0 0 185 42" fill="none" xmlns="http://www.w3.org/2000/svg">
<path d="M8.38768 23.329C3.3393 22.2773 0 18.2018 0 12.4435C0 4.84459 4.89062 0.953125 10.5701 0.953125H23.1121V6.8692H22.8492C22.8492 6.4485 22.3233 5.68598 21.0086 5.68598H13.1205V18.7539C14.9874 18.3069 16.4598 17.0186 16.4598 14.9414C16.4598 14.6521 16.4335 14.3629 16.3547 14.0474L16.5913 13.9422L18.9577 18.9643C18.0638 21.4096 15.7762 22.9083 13.1205 23.4079V32.2163C15.7499 33.0051 23.1121 35.5293 28.476 35.5293C30.6584 35.5293 32.4727 34.9771 33.5244 33.4521L33.7611 33.5573L31.0265 39.6048C29.7118 40.0255 28.3709 40.0781 27.0036 40.0781C20.1147 40.0781 10.2019 35.7922 7.20447 35.7922V35.5293C7.62516 35.5293 8.38768 35.0034 8.38768 33.6887V23.329ZM4.73286 12.4172C4.73286 15.2043 6.20531 17.2815 8.38768 18.2807V6.13298C6.46824 6.81661 4.73286 8.44682 4.73286 12.4172Z" fill="url(#paint0_linear_113_497)"/>
<path d="M26.664 11.6021V26.458H31.5021C32.8168 26.458 33.3426 25.6955 33.3426 25.2748H33.6056V30.5335H21.0109V30.2706C21.4316 30.2706 22.1941 29.7447 22.1941 28.43V11.6021C22.1941 10.2874 21.4316 9.76151 21.0109 9.76151V9.49857H27.8473V9.76151C27.4266 9.76151 26.664 10.2874 26.664 11.6021Z" fill="url(#paint1_linear_113_497)"/>
<path d="M46.3999 11.6021C46.4262 11.3654 46.4525 11.1288 46.4525 10.9447C46.4525 9.97185 46.0055 9.76151 45.69 9.76151V9.49857H52.5263V9.76151C52.1056 9.76151 51.3431 10.6555 51.1065 11.6021C50.7121 13.1534 50.0547 15.6776 49.3711 18.4647C48.2405 22.9346 46.9784 28.0356 46.3999 30.5335H40.1683V30.2706C40.8782 30.2706 41.1675 29.1925 41.1675 28.6404C41.1675 26.7998 39.4584 20.8837 38.8536 18.4647C38.17 15.7039 37.4864 13.0745 37.1182 11.6021C36.8816 10.6555 36.1191 9.76151 35.6984 9.76151V9.49857H42.5347V9.76151C42.2192 9.76151 41.7722 9.97185 41.7722 10.9447C41.7722 11.1288 41.7985 11.3654 41.8248 11.6021C42.1929 13.8896 42.6662 16.1772 43.1395 18.4647C43.4813 19.9897 43.8231 21.4885 44.1386 23.0135C44.4542 21.4885 44.7697 19.9897 45.0852 18.4647C45.5585 16.1772 46.0318 13.8896 46.3999 11.6021Z" fill="url(#paint2_linear_113_497)"/>
<path d="M55.8059 28.43V11.6021C55.8059 10.2874 55.0433 9.76151 54.6226 9.76151V9.49857H61.459V9.76151C61.0383 9.76151 60.2758 10.2874 60.2758 11.6021V28.43C60.2758 29.7447 61.0383 30.2706 61.459 30.2706V30.5335H54.6226V30.2706C55.0433 30.2706 55.8059 29.7447 55.8059 28.43Z" fill="url(#paint3_linear_113_497)"/>
<path d="M69.343 26.3791C70.6577 26.3791 71.7357 25.8532 71.7357 24.6437C71.7357 22.3825 63.6373 21.3833 63.6373 15.5987C63.6373 11.7598 66.8188 9.23563 70.4473 9.23563C72.3405 9.23563 74.1284 9.94556 75.8112 11.0236L75.3642 16.6767L75.1013 16.6504C75.1013 14.547 72.209 13.653 70.5262 13.653C69.2115 13.653 68.1861 14.1788 68.1861 15.3883C68.1861 17.3867 76.2582 18.4647 76.2582 24.3808C76.2582 28.2197 73.1819 30.7964 69.4744 30.7964C67.5813 30.7964 65.7933 30.0865 64.1105 29.0085L64.5575 23.3553L64.8205 23.3816C64.8205 25.4588 67.6602 26.3791 69.343 26.3791Z" fill="url(#paint4_linear_113_497)"/>
<path d="M84.0274 22.251V28.43C84.0274 29.7447 84.7899 30.2706 85.2106 30.2706V30.5335H78.3742V30.2706C78.7949 30.2706 79.5575 29.7447 79.5575 28.43V11.6021C79.5575 10.2874 78.7949 9.76151 78.3742 9.76151V9.49857H85.2106V9.76151C84.7899 9.76151 84.0274 10.2874 84.0274 11.6021V18.7014L87.9714 17.9914V11.6021C87.9714 10.2874 87.2089 9.76151 86.7882 9.76151V9.49857H93.6246V9.76151C93.2039 9.76151 92.4414 10.2874 92.4414 11.6021V28.43C92.4414 29.7447 93.2039 30.2706 93.6246 30.2706V30.5335H86.7882V30.2706C87.2089 30.2706 87.9714 29.7447 87.9714 28.43V21.5411L84.0274 22.251Z" fill="url(#paint5_linear_113_497)"/>
<path d="M103.358 4.50277V4.23983H110.589C111.431 6.71144 113.718 10.2085 115.848 13.8896C118.004 10.2085 120.291 6.68514 121.133 4.23983H128.364V4.50277C127.943 4.50277 127.18 5.02864 127.18 6.34333V33.6887C127.18 35.0034 127.943 35.5293 128.364 35.5293V35.7922H121.264V35.5293C121.685 35.5293 122.448 35.0034 122.448 33.6887V11.4969C121.685 13.1797 115.979 21.173 115.979 25.3011C115.979 26.7998 116.716 27.7727 118.714 27.7727C119.266 27.7727 119.897 27.7201 120.633 27.5623L120.765 27.9304L114.98 30.5335C112.298 29.5343 111.273 27.7201 111.273 25.4851C111.273 23.4342 112.14 21.0152 113.35 18.491C111.693 15.3621 109.721 12.4435 109.274 11.4969V34.3198C109.274 36.9229 112.14 38.7371 114.875 38.0272L114.98 38.2638L108.591 41.051C105.856 40.0781 104.542 37.1595 104.542 34.3198V6.34333C104.542 5.02864 103.779 4.50277 103.358 4.50277Z" fill="url(#paint6_linear_113_497)"/>
<path d="M130.076 30.5335V30.2706C130.497 30.2706 131.259 29.4029 131.496 28.43C132.048 26.1425 134.809 12.7853 134.809 11.6021C134.835 10.2348 134.047 9.76151 133.652 9.76151V9.49857H141.593C142.513 13.5478 144.538 24.4071 145.484 28.43C145.695 29.3766 146.483 30.2706 146.904 30.2706V30.5335H140.015V30.2706C140.383 30.2706 140.962 29.955 140.725 28.43C140.489 26.9313 140.252 25.4325 140.015 23.9601L136.886 24.5123C136.702 25.8269 136.466 27.1153 136.255 28.43C136.019 29.955 136.597 30.2706 136.965 30.2706V30.5335H130.076ZM138.516 13.9948C138.175 16.2823 137.833 18.5699 137.465 20.8574L139.463 20.4893C139.148 18.3332 138.832 16.1772 138.516 13.9948Z" fill="url(#paint7_linear_113_497)"/>
<path d="M161.778 26.2739C161.778 27.983 159.622 30.7964 156.151 30.7964C149.709 30.7964 148.474 24.7489 148.474 20.0686C148.474 15.3884 149.709 9.23563 156.151 9.23563C158.15 9.23563 160.569 9.97185 161.384 12.2068L158.229 15.0991C157.966 14.284 157.308 13.7056 156.204 13.7056C153.259 13.7056 153.364 18.0966 153.364 20.0949C153.364 22.0932 153.259 26.3791 156.204 26.3791C157.098 26.3791 157.308 25.7743 157.308 25.3274V21.62C157.308 20.3053 156.546 19.7794 156.125 19.7794V19.5165H162.436V19.7794C162.015 19.7794 161.778 20.3053 161.778 21.62V26.2739Z" fill="url(#paint8_linear_113_497)"/>
<path d="M165.731 28.43V11.6021C165.731 10.2874 164.968 9.76151 164.548 9.76151V9.49857H171.384V9.76151C170.963 9.76151 170.201 10.2874 170.201 11.6021V28.43C170.201 29.7447 170.963 30.2706 171.384 30.2706V30.5335H164.548V30.2706C164.968 30.2706 165.731 29.7447 165.731 28.43Z" fill="url(#paint9_linear_113_497)"/>
<path d="M181.161 30.7964C174.851 30.7964 173.483 24.9592 173.483 19.9109C173.483 14.9151 175.008 9.23563 181.161 9.23563C182.397 9.23563 183.528 9.55116 185 10.2085L184.474 15.5461L184.211 15.5198C184.211 14.4681 182.87 13.7056 181.661 13.7056C178.558 13.7056 178.374 17.3604 178.374 19.6742C178.374 22.0932 178.295 26.3265 181.661 26.3265C182.87 26.3265 184.211 25.564 184.211 24.5123L184.474 24.486L185 29.8236C183.528 30.4809 182.397 30.7964 181.161 30.7964Z" fill="url(#paint10_linear_113_497)"/>
<defs>
<linearGradient id="paint0_linear_113_497" x1="-0.781494" y1="20.7595" x2="186.06" y2="20.7595" gradientUnits="userSpaceOnUse">
<stop stop-color="#F9AC6D"/>
<stop offset="0.242708" stop-color="#ED5890"/>
<stop offset="0.497917" stop-color="#2EFBF6"/>
<stop offset="0.76875" stop-color="#ED5890"/>
<stop offset="1" stop-color="#F9AC6D"/>
</linearGradient>
<linearGradient id="paint1_linear_113_497" x1="-0.781494" y1="20.7595" x2="186.06" y2="20.7595" gradientUnits="userSpaceOnUse">
<stop stop-color="#F9AC6D"/>
<stop offset="0.242708" stop-color="#ED5890"/>
<stop offset="0.497917" stop-color="#2EFBF6"/>
<stop offset="0.76875" stop-color="#ED5890"/>
<stop offset="1" stop-color="#F9AC6D"/>
</linearGradient>
<linearGradient id="paint2_linear_113_497" x1="-0.781494" y1="20.7595" x2="186.06" y2="20.7595" gradientUnits="userSpaceOnUse">
<stop stop-color="#F9AC6D"/>
<stop offset="0.242708" stop-color="#ED5890"/>
<stop offset="0.497917" stop-color="#2EFBF6"/>
<stop offset="0.76875" stop-color="#ED5890"/>
<stop offset="1" stop-color="#F9AC6D"/>
</linearGradient>
<linearGradient id="paint3_linear_113_497" x1="-0.781494" y1="20.7595" x2="186.06" y2="20.7595" gradientUnits="userSpaceOnUse">
<stop stop-color="#F9AC6D"/>
<stop offset="0.242708" stop-color="#ED5890"/>
<stop offset="0.497917" stop-color="#2EFBF6"/>
<stop offset="0.76875" stop-color="#ED5890"/>
<stop offset="1" stop-color="#F9AC6D"/>
</linearGradient>
<linearGradient id="paint4_linear_113_497" x1="-0.781494" y1="20.7595" x2="186.06" y2="20.7595" gradientUnits="userSpaceOnUse">
<stop stop-color="#F9AC6D"/>
<stop offset="0.242708" stop-color="#ED5890"/>
<stop offset="0.497917" stop-color="#2EFBF6"/>
<stop offset="0.76875" stop-color="#ED5890"/>
<stop offset="1" stop-color="#F9AC6D"/>
</linearGradient>
<linearGradient id="paint5_linear_113_497" x1="-0.781494" y1="20.7595" x2="186.06" y2="20.7595" gradientUnits="userSpaceOnUse">
<stop stop-color="#F9AC6D"/>
<stop offset="0.242708" stop-color="#ED5890"/>
<stop offset="0.497917" stop-color="#2EFBF6"/>
<stop offset="0.76875" stop-color="#ED5890"/>
<stop offset="1" stop-color="#F9AC6D"/>
</linearGradient>
<linearGradient id="paint6_linear_113_497" x1="-0.781494" y1="20.7595" x2="186.06" y2="20.7595" gradientUnits="userSpaceOnUse">
<stop stop-color="#F9AC6D"/>
<stop offset="0.242708" stop-color="#ED5890"/>
<stop offset="0.497917" stop-color="#2EFBF6"/>
<stop offset="0.76875" stop-color="#ED5890"/>
<stop offset="1" stop-color="#F9AC6D"/>
</linearGradient>
<linearGradient id="paint7_linear_113_497" x1="-0.781494" y1="20.7595" x2="186.06" y2="20.7595" gradientUnits="userSpaceOnUse">
<stop stop-color="#F9AC6D"/>
<stop offset="0.242708" stop-color="#ED5890"/>
<stop offset="0.497917" stop-color="#2EFBF6"/>
<stop offset="0.76875" stop-color="#ED5890"/>
<stop offset="1" stop-color="#F9AC6D"/>
</linearGradient>
<linearGradient id="paint8_linear_113_497" x1="-0.781494" y1="20.7595" x2="186.06" y2="20.7595" gradientUnits="userSpaceOnUse">
<stop stop-color="#F9AC6D"/>
<stop offset="0.242708" stop-color="#ED5890"/>
<stop offset="0.497917" stop-color="#2EFBF6"/>
<stop offset="0.76875" stop-color="#ED5890"/>
<stop offset="1" stop-color="#F9AC6D"/>
</linearGradient>
<linearGradient id="paint9_linear_113_497" x1="-0.781494" y1="20.7595" x2="186.06" y2="20.7595" gradientUnits="userSpaceOnUse">
<stop stop-color="#F9AC6D"/>
<stop offset="0.242708" stop-color="#ED5890"/>
<stop offset="0.497917" stop-color="#2EFBF6"/>
<stop offset="0.76875" stop-color="#ED5890"/>
<stop offset="1" stop-color="#F9AC6D"/>
</linearGradient>
<linearGradient id="paint10_linear_113_497" x1="-0.781494" y1="20.7595" x2="186.06" y2="20.7595" gradientUnits="userSpaceOnUse">
<stop stop-color="#F9AC6D"/>
<stop offset="0.242708" stop-color="#ED5890"/>
<stop offset="0.497917" stop-color="#2EFBF6"/>
<stop offset="0.76875" stop-color="#ED5890"/>
<stop offset="1" stop-color="#F9AC6D"/>
</linearGradient>
</defs>
</svg>
