<svg width="15" height="16" viewBox="0 0 15 16" fill="none" xmlns="http://www.w3.org/2000/svg">
<path d="M12.5349 15.5025L10.2619 11.556C10.2619 10.1156 9.37098 9.19138 8.28859 9.19138C7.53925 9.19138 6.88982 9.60768 6.55677 10.2238C6.83153 10.0656 7.15625 9.98236 7.49762 9.98236C8.58001 9.98236 9.46257 10.8649 9.46257 11.9473C9.46257 13.038 8.58833 13.9289 7.49762 13.9289H10.2452V15.5025H3.15974C2.95992 15.5025 2.75176 15.4276 2.60189 15.2694C2.45404 15.1214 2.37099 14.9208 2.37099 14.7116C2.37099 14.5024 2.45404 14.3017 2.60189 14.1537L3.0182 13.7374C2.73511 13.6125 2.50198 13.421 2.26885 13.2212C2.08568 13.6375 1.66938 13.9289 1.18646 13.9289C0.871794 13.9289 0.570012 13.8039 0.347507 13.5814C0.125002 13.3589 0 13.0571 0 12.7424C0 12.4278 0.125002 12.126 0.347507 11.9035C0.570012 11.681 0.871794 11.556 1.18646 11.556L1.57779 11.6226V9.98236C1.57669 9.46378 1.67802 8.95009 1.87597 8.47078C2.07391 7.99147 2.36457 7.55596 2.73126 7.18927C3.09795 6.82258 3.53345 6.53193 4.01276 6.33398C4.49208 6.13604 5.00577 6.03471 5.52434 6.0358H5.54099C7.30612 6.04413 8.67992 6.73519 8.67992 5.64448C8.67992 4.87015 8.84644 4.56209 9.12953 4.12914C8.52172 3.84605 7.83066 3.6712 7.10629 3.6712C6.66501 3.6712 6.31532 3.32151 6.31532 2.88023C6.31532 2.52221 6.54845 2.22247 6.87316 2.12255L6.31532 2.08925C5.88236 2.08925 5.52434 1.73956 5.52434 1.3066C5.52434 0.86532 5.88236 0.515625 6.31532 0.515625H7.10629C8.85477 0.515625 10.3868 1.47312 11.211 2.88855L11.4442 2.88023C12.0353 2.88023 12.5848 3.07173 13.0344 3.38812L13.4091 3.70451C15.2159 5.32809 14.9911 6.42713 14.9911 6.43545C14.9911 7.50119 14.1085 8.37543 13.0344 8.37543L12.6265 8.3338V8.40041C12.6265 9.3246 12.2268 10.1489 11.6024 10.7317L14.3583 15.5025H12.5349ZM12.6265 4.46218C12.1852 4.46218 11.8355 4.81187 11.8355 5.24483C11.8355 5.68611 12.1852 6.0358 12.6265 6.0358C13.0594 6.0358 13.4174 5.68611 13.4174 5.24483C13.4174 4.81187 13.0594 4.46218 12.6265 4.46218Z" fill="#ED5890"/>
</svg>
