<svg width="25" height="26" viewBox="0 0 25 26" fill="none" xmlns="http://www.w3.org/2000/svg">
<path fill-rule="evenodd" clip-rule="evenodd" d="M12.6268 3.79688C10.1185 3.79688 9.80449 3.80734 8.81941 3.85229C7.83617 3.89723 7.16447 4.05361 6.57711 4.28203C5.96144 4.51352 5.40302 4.87677 4.94126 5.34715C4.47163 5.80837 4.10816 6.3664 3.87614 6.98239C3.64895 7.56974 3.49196 8.24206 3.44701 9.2253C3.40268 10.2098 3.3916 10.5231 3.3916 13.032C3.3916 15.5409 3.40207 15.8543 3.44701 16.8394C3.49196 17.8226 3.64834 18.4943 3.87675 19.0817C4.10825 19.6973 4.4715 20.2558 4.94188 20.7175C5.40311 21.1871 5.96113 21.5506 6.57711 21.7826C7.16447 22.0104 7.83617 22.1668 8.81941 22.2118C9.80449 22.2567 10.1185 22.2672 12.6268 22.2672C15.135 22.2672 15.449 22.2567 16.4341 22.2118C17.4173 22.1668 18.089 22.0104 18.6764 21.782C19.2921 21.5505 19.8505 21.1873 20.3122 20.7169C20.7819 20.2557 21.1453 19.6977 21.3774 19.0817C21.6052 18.4943 21.7615 17.8226 21.8065 16.8394C21.8514 15.8543 21.8619 15.5403 21.8619 13.032C21.8619 10.5238 21.8514 10.2098 21.8065 9.22468C21.7615 8.24145 21.6052 7.56974 21.3768 6.98239C21.1449 6.36613 20.7814 5.80787 20.3116 5.34653C19.8504 4.87691 19.2924 4.51344 18.6764 4.28141C18.089 4.05423 17.4167 3.89723 16.4335 3.85229C15.449 3.80796 15.1356 3.79688 12.6268 3.79688ZM12.6268 5.46105C15.0925 5.46105 15.385 5.47028 16.359 5.51461C17.2591 5.55586 17.748 5.70547 18.0736 5.83292C18.5046 5.99977 18.8125 6.20048 19.1357 6.52309C19.4589 6.84632 19.659 7.15416 19.8259 7.58514C19.9527 7.91083 20.1029 8.39968 20.1442 9.2998C20.1885 10.2738 20.1977 10.5662 20.1977 13.032C20.1977 15.4978 20.1885 15.7903 20.1442 16.7643C20.1029 17.6644 19.9533 18.1532 19.8259 18.4789C19.6781 18.8801 19.4422 19.243 19.1357 19.541C18.8378 19.8476 18.4748 20.0834 18.0736 20.2311C17.748 20.358 17.2591 20.5082 16.359 20.5494C15.385 20.5938 15.0932 20.603 12.6268 20.603C10.1604 20.603 9.86852 20.5938 8.89452 20.5494C7.9944 20.5082 7.50555 20.3586 7.17986 20.2311C6.77872 20.0833 6.41581 19.8475 6.11782 19.541C5.81132 19.2429 5.57549 18.88 5.42764 18.4789C5.30082 18.1532 5.15059 17.6644 5.10934 16.7643C5.06501 15.7903 5.05578 15.4978 5.05578 13.032C5.05578 10.5662 5.06501 10.2738 5.10934 9.2998C5.15059 8.39968 5.3002 7.91083 5.42764 7.58514C5.59449 7.15416 5.7952 6.84632 6.11782 6.52309C6.41577 6.21651 6.77869 5.98067 7.17986 5.83292C7.50555 5.70609 7.9944 5.55586 8.89452 5.51461C9.86852 5.47028 10.161 5.46105 12.6268 5.46105Z" fill="white" fill-opacity="0.5"/>
<path fill-rule="evenodd" clip-rule="evenodd" d="M12.6277 16.1147C12.2231 16.1147 11.8224 16.035 11.4485 15.8802C11.0746 15.7253 10.7349 15.4983 10.4488 15.2122C10.1627 14.926 9.93568 14.5863 9.78083 14.2125C9.62597 13.8386 9.54626 13.4379 9.54626 13.0333C9.54626 12.6286 9.62597 12.2279 9.78083 11.854C9.93568 11.4802 10.1627 11.1405 10.4488 10.8543C10.7349 10.5682 11.0746 10.3412 11.4485 10.1864C11.8224 10.0315 12.2231 9.9518 12.6277 9.9518C13.445 9.9518 14.2288 10.2765 14.8066 10.8543C15.3845 11.4322 15.7092 12.216 15.7092 13.0333C15.7092 13.8505 15.3845 14.6343 14.8066 15.2122C14.2288 15.7901 13.445 16.1147 12.6277 16.1147ZM12.6277 8.28639C11.3688 8.28639 10.1614 8.78651 9.27118 9.67672C8.38097 10.5669 7.88086 11.7743 7.88086 13.0333C7.88086 14.2922 8.38097 15.4996 9.27118 16.3898C10.1614 17.28 11.3688 17.7801 12.6277 17.7801C13.8867 17.7801 15.0941 17.28 15.9843 16.3898C16.8745 15.4996 17.3746 14.2922 17.3746 13.0333C17.3746 11.7743 16.8745 10.5669 15.9843 9.67672C15.0941 8.78651 13.8867 8.28639 12.6277 8.28639ZM18.7556 8.2002C18.7556 8.49779 18.6373 8.78319 18.4269 8.99362C18.2165 9.20405 17.9311 9.32227 17.6335 9.32227C17.3359 9.32227 17.0505 9.20405 16.8401 8.99362C16.6296 8.78319 16.5114 8.49779 16.5114 8.2002C16.5114 7.9026 16.6296 7.6172 16.8401 7.40677C17.0505 7.19634 17.3359 7.07813 17.6335 7.07812C17.9311 7.07812 18.2165 7.19634 18.4269 7.40677C18.6373 7.6172 18.7556 7.9026 18.7556 8.2002Z" fill="white" fill-opacity="0.5"/>
</svg>
