<svg width="25" height="26" viewBox="0 0 25 26" fill="none" xmlns="http://www.w3.org/2000/svg">
<path fill-rule="evenodd" clip-rule="evenodd" d="M22.6651 13.0269C22.6651 18.6941 18.071 23.2882 12.4039 23.2882C6.73671 23.2882 2.14258 18.6941 2.14258 13.0269C2.14258 7.35976 6.73671 2.76562 12.4039 2.76562C18.071 2.76562 22.6651 7.35976 22.6651 13.0269ZM12.7716 10.341C11.7735 10.7561 9.77878 11.6153 6.78741 12.9186C6.30166 13.1118 6.0472 13.3007 6.02403 13.4855C5.98488 13.7978 6.37595 13.9208 6.90847 14.0882C6.98091 14.111 7.05596 14.1346 7.13291 14.1596C7.65683 14.3299 8.3616 14.5292 8.72798 14.5371C9.06032 14.5443 9.43126 14.4072 9.84078 14.126C12.6357 12.2394 14.0785 11.2858 14.169 11.2652C14.2329 11.2507 14.3215 11.2325 14.3815 11.2858C14.4415 11.3391 14.4356 11.4401 14.4292 11.4672C14.3905 11.6324 12.8554 13.0595 12.061 13.798C11.8134 14.0283 11.6377 14.1916 11.6018 14.2289C11.5214 14.3124 11.4394 14.3915 11.3606 14.4674C10.8739 14.9367 10.5088 15.2885 11.3808 15.8631C11.7998 16.1393 12.1351 16.3676 12.4696 16.5954C12.8349 16.8442 13.1993 17.0923 13.6708 17.4014C13.7909 17.4801 13.9056 17.5619 14.0173 17.6415C14.4425 17.9446 14.8244 18.2169 15.2963 18.1735C15.5705 18.1483 15.8537 17.8904 15.9976 17.1215C16.3375 15.3042 17.0057 11.3667 17.1601 9.74414C17.1737 9.60198 17.1566 9.42005 17.143 9.34019C17.1293 9.26032 17.1007 9.14653 16.9969 9.0623C16.874 8.96254 16.6842 8.9415 16.5993 8.943C16.2134 8.9498 15.6212 9.15569 12.7716 10.341Z" fill="white" fill-opacity="0.5"/>
</svg>
