<svg width="26" height="26" viewBox="0 0 26 26" fill="none" xmlns="http://www.w3.org/2000/svg">
<path fill-rule="evenodd" clip-rule="evenodd" d="M21.2882 6.27844C22.1707 6.51554 22.8688 7.21368 23.1059 8.09622C23.5406 9.70325 23.5538 13.0359 23.5538 13.0359C23.5538 13.0359 23.5538 16.3817 23.1191 17.9755C22.882 18.8581 22.1839 19.5562 21.3013 19.7933C19.7075 20.228 13.2925 20.228 13.2925 20.228C13.2925 20.228 6.87758 20.228 5.28373 19.7933C4.40118 19.5562 3.70304 18.8581 3.46594 17.9755C3.03125 16.3685 3.03125 13.0359 3.03125 13.0359C3.03125 13.0359 3.03125 9.70325 3.45277 8.1094C3.68987 7.22685 4.38801 6.52872 5.27055 6.29161C6.86441 5.85692 13.2794 5.84375 13.2794 5.84375C13.2794 5.84375 19.6943 5.84375 21.2882 6.27844ZM16.5593 13.0359L11.2376 16.1182V9.95353L16.5593 13.0359Z" fill="white" fill-opacity="0.5"/>
</svg>
