<svg width="16" height="14" viewBox="0 0 16 14" fill="none" xmlns="http://www.w3.org/2000/svg">
<path d="M1.09976 6.22419C5.39553 4.35302 8.25938 3.11931 9.69131 2.52329C13.7845 0.82132 14.634 0.525727 15.1888 0.515712C15.3108 0.513755 15.5825 0.543913 15.7597 0.687221C15.9071 0.808083 15.9485 0.971534 15.9692 1.0863C15.9876 1.20094 16.013 1.46223 15.9922 1.6662C15.7712 3.99596 14.8112 9.64953 14.3232 12.259C14.1183 13.3631 13.7108 13.7333 13.3172 13.7694C12.4608 13.8482 11.8116 13.204 10.9828 12.6609C9.68671 11.8108 8.95463 11.2817 7.69536 10.4523C6.24041 9.49368 7.18429 8.96672 8.01306 8.10572C8.22946 7.88034 12.0003 4.45132 12.0717 4.1403C12.0809 4.1014 12.0901 3.95636 12.0026 3.87993C11.9175 3.80327 11.7909 3.82951 11.6988 3.85023C11.5675 3.8797 9.49793 5.24901 5.48301 7.95793C4.89597 8.36172 4.36418 8.55855 3.88533 8.54819C3.36045 8.53691 2.34751 8.25076 1.59472 8.00627C0.673863 7.7063 -0.0605175 7.54769 0.00394219 7.03823C0.036172 6.77302 0.402211 6.5016 1.09976 6.22419Z" fill="#2BABEE"/>
</svg>
